<svg width="12" height="16" viewBox="0 0 12 16" fill="none" xmlns="http://www.w3.org/2000/svg">
<path d="M8.05423 15.1972C7.73207 15.2027 7.41049 15.1676 7.09714 15.0925C3.96987 14.2285 -0.137766 6.98194 0.726234 3.85758C1.11949 2.75053 1.8736 1.80789 2.86733 1.18121C3.05932 1.06776 3.25423 0.96594 3.44914 0.872849C3.62802 0.791409 3.83093 0.779991 4.01782 0.840849C4.2047 0.901708 4.36198 1.03042 4.4586 1.20158L6.10223 4.11067C6.1568 4.20597 6.1907 4.31168 6.20173 4.42095C6.21276 4.53021 6.20066 4.64057 6.16623 4.74485C6.13116 4.84936 6.07479 4.94547 6.00068 5.02708C5.92658 5.1087 5.83634 5.17406 5.73569 5.21903C5.57569 5.28885 5.4186 5.36158 5.26732 5.44012C4.60696 5.77176 4.22878 6.07139 4.14151 6.33321C3.94078 6.95576 4.17933 8.00885 4.74951 9.01539C5.31969 10.0219 6.08769 10.7608 6.7306 10.8976C6.91969 10.9412 7.31242 10.8976 8.0746 10.3943C8.22005 10.3041 8.36551 10.2052 8.50805 10.1034C8.59762 10.0399 8.69952 9.99585 8.80715 9.97416C8.91479 9.95246 9.02578 9.95357 9.13297 9.97742C9.24015 10.0013 9.34114 10.0473 9.42942 10.1126C9.51771 10.1779 9.59132 10.261 9.64551 10.3565L11.2921 13.2656C11.3904 13.4366 11.4208 13.6384 11.3771 13.8309C11.3335 14.0233 11.219 14.1923 11.0564 14.3041C10.879 14.4205 10.6899 14.5368 10.4921 14.6445C9.73598 15.0228 8.89955 15.2125 8.05423 15.1972ZM3.77205 1.23358C3.7238 1.23447 3.67625 1.24537 3.63242 1.26558C3.45205 1.34994 3.26878 1.44885 3.08842 1.55648C2.19295 2.12595 1.51001 2.97453 1.14514 3.97103C0.778598 5.30048 1.42151 7.71212 2.78296 10.1121C4.14442 12.5121 5.88405 14.3041 7.21351 14.6736C8.25482 14.8734 9.33294 14.7263 10.2826 14.2547C10.4688 14.1528 10.6462 14.0452 10.8121 13.9347C10.8833 13.8846 10.9333 13.8096 10.9521 13.7246C10.9709 13.6395 10.9573 13.5505 10.9139 13.475L9.26733 10.5659C9.24322 10.5237 9.21061 10.4868 9.17156 10.4578C9.1325 10.4287 9.08785 10.4081 9.04042 10.3972C8.99057 10.3857 8.93886 10.385 8.8887 10.395C8.83855 10.405 8.7911 10.4256 8.74951 10.4554C8.60114 10.5601 8.4586 10.6619 8.30151 10.7463C7.5626 11.2234 7.03023 11.4008 6.62587 11.3107C5.85496 11.1361 5.00842 10.3536 4.3626 9.21612C3.85933 8.34339 3.42878 7.07503 3.71969 6.18485C3.84478 5.79794 4.27242 5.43139 5.06078 5.02121C5.21787 4.93976 5.38369 4.86412 5.54951 4.79139C5.59485 4.7713 5.63556 4.74207 5.6691 4.70553C5.70263 4.66899 5.72827 4.62592 5.74442 4.57903C5.76051 4.53126 5.76623 4.4806 5.76122 4.43044C5.7562 4.38028 5.74056 4.33176 5.71533 4.28812L4.06878 1.37903C4.03468 1.33289 3.98982 1.29578 3.93811 1.27093C3.88639 1.24609 3.82938 1.23426 3.77205 1.23649V1.23358Z" fill="#8C3213"/>
</svg>
